<mxfile host="app.diagrams.net" agent="Mozilla/5.0 (Macintosh; Intel Mac OS X 10_15_7) AppleWebKit/537.36 (KHTML, like Gecko) Chrome/136.0.0.0 Safari/537.36" version="27.0.9">
  <diagram name="Page-1" id="tKqM68xzYUHPmAhdjt3v">
    <mxGraphModel dx="1425" dy="824" grid="1" gridSize="10" guides="1" tooltips="1" connect="1" arrows="1" fold="1" page="1" pageScale="1" pageWidth="827" pageHeight="1169" math="0" shadow="0">
      <root>
        <mxCell id="0" />
        <mxCell id="1" parent="0" />
        <mxCell id="OrUAmVIMEhxuMDkeKE7c-1" value="" style="rounded=0;whiteSpace=wrap;html=1;" vertex="1" parent="1">
          <mxGeometry x="110" y="190" width="120" height="60" as="geometry" />
        </mxCell>
        <mxCell id="OrUAmVIMEhxuMDkeKE7c-2" value="" style="rounded=0;whiteSpace=wrap;html=1;" vertex="1" parent="1">
          <mxGeometry x="460" y="250" width="120" height="60" as="geometry" />
        </mxCell>
        <mxCell id="OrUAmVIMEhxuMDkeKE7c-3" value="" style="endArrow=openThin;dashed=1;html=1;rounded=1;entryX=0;entryY=0.5;entryDx=0;entryDy=0;exitX=1;exitY=0.5;exitDx=0;exitDy=0;flowAnimation=1;startArrow=none;startFill=0;endFill=0;edgeStyle=entityRelationEdgeStyle;" edge="1" parent="1" source="OrUAmVIMEhxuMDkeKE7c-1" target="OrUAmVIMEhxuMDkeKE7c-2">
          <mxGeometry width="50" height="50" relative="1" as="geometry">
            <mxPoint x="220" y="260" as="sourcePoint" />
            <mxPoint x="270" y="210" as="targetPoint" />
            <Array as="points">
              <mxPoint x="500" y="230" />
            </Array>
          </mxGeometry>
        </mxCell>
      </root>
    </mxGraphModel>
  </diagram>
</mxfile>
